<?xml version="1.0" encoding="utf-8"?>
<!-- Generator: Adobe Illustrator 24.2.1, SVG Export Plug-In . SVG Version: 6.00 Build 0)  -->
<svg version="1.1" id="Capa_1" xmlns="http://www.w3.org/2000/svg" xmlns:xlink="http://www.w3.org/1999/xlink" x="0px" y="0px"
	 viewBox="0 0 219.13 319.07" style="enable-background:new 0 0 219.13 319.07;" xml:space="preserve">
<style type="text/css">
	.st0{fill:#FFFFFF;}
	.st1{clip-path:url(#SVGID_2_);}
</style>
<g>
	<g>
		<path class="st0" d="M76.78,288.28c-0.52,2.34-1.26,4.34-2.22,6.01c-1.1-0.05-2.06-0.13-2.9-0.25c-0.83-0.12-1.68-0.3-2.54-0.54
			c1-1.86,1.75-3.91,2.25-6.15c0.5-2.24,0.75-4.37,0.75-6.37c0-3.43-0.72-6.13-2.15-8.09c-1.43-1.96-3.43-2.93-6.01-2.93
			c-1.67,0-3.07,0.33-4.19,1c-1.12,0.67-2.09,1.65-2.9,2.93c-0.81,1.29-1.65,3.03-2.5,5.22l-1.5,3.79c-1.38,3.58-3.19,6.35-5.4,8.3
			c-2.22,1.96-5.07,2.93-8.55,2.93c-4.15,0-7.36-1.4-9.62-4.19c-2.27-2.79-3.4-6.88-3.4-12.27c0-4.58,0.76-8.71,2.29-12.38
			c1.05,0.1,1.97,0.23,2.76,0.39c0.79,0.17,1.63,0.37,2.54,0.61c-0.72,1.77-1.25,3.63-1.61,5.58c-0.36,1.96-0.54,3.82-0.54,5.58
			c0,3.34,0.68,5.87,2.04,7.59c1.36,1.72,3.18,2.58,5.47,2.58c1.67,0,3.05-0.31,4.15-0.93c1.1-0.62,2-1.5,2.72-2.65
			c0.72-1.14,1.46-2.74,2.22-4.79l1.43-3.94c0.91-2.34,1.93-4.37,3.08-6.08c1.14-1.72,2.64-3.11,4.47-4.19
			c1.84-1.07,4.09-1.61,6.76-1.61c2.72,0,5.12,0.67,7.19,2c2.08,1.34,3.71,3.32,4.9,5.94c1.19,2.62,1.79,5.84,1.79,9.66
			C77.57,283.54,77.31,285.95,76.78,288.28z"/>
		<path class="st0" d="M28.08,230.96c1.46-2.81,3.39-4.83,5.8-6.05c2.41-1.22,5.14-1.82,8.19-1.82c3.39,0,6.35,0.73,8.87,2.18
			c2.53,1.46,4.47,3.58,5.83,6.37c1.36,2.79,2.04,6.17,2.04,10.13v6.3H76.5v6.3H26.98c-0.29-1.86-0.54-3.91-0.75-6.15
			c-0.21-2.24-0.32-4.34-0.32-6.3C25.9,237.43,26.63,233.78,28.08,230.96z M50.52,232.61c-1.96-2.05-4.65-3.08-8.09-3.08
			c-7.39,0-11.09,4.1-11.09,12.31c0,2.34,0.12,4.41,0.36,6.23h21.76v-6.3C53.45,237.71,52.48,234.66,50.52,232.61z"/>
		<path class="st0" d="M56.53,201.41v6.94H76.5v6.23H27.26c-0.86-3.67-1.29-7.68-1.29-12.02c0-4.15,0.68-7.57,2.04-10.27
			c1.36-2.69,3.17-4.66,5.44-5.9c2.27-1.24,4.81-1.86,7.62-1.86c3.86,0,7,0.99,9.41,2.97c2.41,1.98,4.14,4.64,5.19,7.98l20.82-12.45
			v7.23L56.53,201.41z M51.16,202.34c0-7.54-3.29-11.31-9.88-11.31c-3.29,0-5.77,0.98-7.44,2.93c-1.67,1.96-2.5,4.84-2.5,8.66
			c0,1.77,0.12,3.67,0.36,5.72h19.46V202.34z"/>
		<path class="st0" d="M27.4,175.36c-0.29-0.86-0.52-1.88-0.72-3.08c-0.19-1.19-0.29-2.27-0.29-3.22H76.5v6.3H27.4z"/>
		<path class="st0" d="M26.69,124.3c-0.19-1.07-0.29-2.09-0.29-3.04H76.5v5.3l-31.06,19.11c-3.2,1.96-6.27,3.65-9.23,5.08
			c3.91-0.09,10.11-0.14,18.61-0.14H76.5v5.87H27.4c-0.29-0.76-0.52-1.72-0.72-2.86c-0.19-1.14-0.29-2.15-0.29-3.01l29.7-18.53
			c1.96-1.24,5.11-2.98,9.45-5.22c-7.06,0.24-13.98,0.36-20.75,0.36H27.4C27.12,126.34,26.88,125.37,26.69,124.3z"/>
		<path class="st0" d="M32.63,79.47v14.1H76.5v6.3H32.63v14.53c-0.81,0-1.74-0.06-2.79-0.18c-1.05-0.12-2-0.27-2.86-0.47V78.82
			C29.55,79.06,31.44,79.28,32.63,79.47z"/>
		<path class="st0" d="M111.34,261.95c2.17-1.48,4.62-2.22,7.34-2.22c4.44,0,7.86,1.44,10.27,4.33c2.41,2.89,3.61,7.05,3.61,12.49
			v15.67H83.03c-0.33-1.67-0.6-3.63-0.79-5.87c-0.19-2.24-0.29-4.39-0.29-6.44c0-6.3,1.16-10.92,3.47-13.88
			c2.31-2.96,5.57-4.44,9.77-4.44c2.58,0,4.84,0.62,6.8,1.86c1.96,1.24,3.48,2.96,4.58,5.15
			C107.58,265.65,109.17,263.43,111.34,261.95z M89.58,270.79c-1.41,1.89-2.11,5-2.11,9.34c0,1.81,0.12,3.75,0.36,5.8h16.53v-8.16
			c0-3.01-0.69-5.39-2.08-7.16c-1.38-1.76-3.51-2.65-6.37-2.65C93.1,267.97,90.99,268.91,89.58,270.79z M124.97,268.93
			c-1.38-1.93-3.53-2.9-6.44-2.9c-2.86,0-5.02,0.97-6.48,2.9c-1.45,1.93-2.18,4.71-2.18,8.34v8.66h17.17v-8.87
			C127.04,273.57,126.35,270.86,124.97,268.93z"/>
		<path class="st0" d="M112.59,237.19v6.94h19.97v6.23H83.32c-0.86-3.67-1.29-7.68-1.29-12.02c0-4.15,0.68-7.57,2.04-10.27
			c1.36-2.69,3.17-4.66,5.44-5.9c2.27-1.24,4.81-1.86,7.62-1.86c3.86,0,7,0.99,9.41,2.97c2.41,1.98,4.14,4.64,5.19,7.98l20.82-12.45
			v7.23L112.59,237.19z M107.22,238.12c0-7.54-3.29-11.31-9.88-11.31c-3.29,0-5.77,0.98-7.44,2.93c-1.67,1.96-2.5,4.84-2.5,8.66
			c0,1.77,0.12,3.67,0.36,5.72h19.46V238.12z"/>
		<path class="st0" d="M126.9,204.85v-21.83c2.24,0.1,4.13,0.31,5.65,0.64v27.48H83.03v-28.12c0.91,0.05,1.85,0.13,2.83,0.25
			c0.98,0.12,1.92,0.27,2.83,0.47v21.11h15.96v-19.32c1.72,0,3.6,0.21,5.65,0.64v18.68H126.9z"/>
		<path class="st0" d="M120.1,149.67v19.39l12.45,3.94v6.08l-48.95-15.82c-0.29-0.91-0.51-2.1-0.68-3.58
			c-0.17-1.48-0.25-2.86-0.25-4.15l49.88-16.17v6.51L120.1,149.67z M114.52,151.39l-25.62,7.94l25.62,8.02V151.39z"/>
		<path class="st0" d="M83.46,132.29c-0.29-0.86-0.52-1.88-0.72-3.08c-0.19-1.19-0.29-2.27-0.29-3.22h50.09v6.3H83.46z
			 M132.55,98.87v7.8l-24.98,19.04h-0.64l-23.9-18.39v-7.16l24.05,18.61L132.55,98.87z"/>
	</g>
	<g>
		<defs>
			<path id="SVGID_1_" d="M205.51,319.07H13.62C6.13,319.07,0,312.95,0,305.45V13.62C0,6.13,6.13,0,13.62,0h191.89
				c7.49,0,13.62,6.13,13.62,13.62v291.83C219.13,312.95,213,319.07,205.51,319.07z"/>
		</defs>
		<clipPath id="SVGID_2_">
			<use xlink:href="#SVGID_1_"  style="overflow:visible;"/>
		</clipPath>
		<g class="st1">
			<ellipse class="st0" cx="206.57" cy="214.98" rx="7.01" ry="2.87"/>
			<path class="st0" d="M202.37,158.3l-0.63,0.04l-0.64,0.06l-0.32,0.03l-0.31,0.04l-0.63,0.09c-0.21,0.03-0.42,0.05-0.63,0.09
				l-0.62,0.11l-0.62,0.11c-0.1,0.02-0.21,0.04-0.31,0.06l-0.31,0.07c-1.64,0.36-3.25,0.84-4.81,1.46c-3.12,1.22-6.04,2.9-8.68,4.89
				c-1.32,1-2.58,2.07-3.77,3.2l-0.89,0.86c-0.29,0.29-0.57,0.59-0.86,0.89c-0.14,0.15-0.29,0.29-0.43,0.45l-0.41,0.46l-0.41,0.46
				c-0.14,0.15-0.28,0.31-0.4,0.47l-0.79,0.95c-0.06,0.08-0.13,0.16-0.19,0.24l-0.19,0.24l-0.38,0.49l-0.38,0.49
				c-0.13,0.16-0.24,0.33-0.36,0.5l-0.71,1c-0.45,0.69-0.92,1.36-1.33,2.07l-0.32,0.53l-0.16,0.26l-0.15,0.27l-0.6,1.07
				c-0.1,0.18-0.19,0.36-0.29,0.54l-0.28,0.55l-0.28,0.55l-0.26,0.56c-0.17,0.37-0.35,0.74-0.52,1.11l-0.49,1.13l-0.12,0.28
				c-0.04,0.09-0.08,0.19-0.11,0.29l-0.22,0.57c-0.15,0.38-0.3,0.76-0.43,1.15l-0.41,1.16c-0.13,0.39-0.25,0.78-0.37,1.17
				c-0.06,0.2-0.12,0.39-0.18,0.59l-0.16,0.6l-0.16,0.6c-0.05,0.2-0.11,0.4-0.15,0.6c-0.09,0.4-0.18,0.81-0.26,1.2
				c-0.08,0.4-0.16,0.79-0.24,1.19c-0.3,1.59-0.56,3.18-0.78,4.78c-0.12,0.85-0.23,1.7-0.33,2.55c-1.2,0.8-2.36,1.77-3.41,2.92
				c-3.86,4.24-5.43,10.03-4.66,17.22c0.11,1.06,0.19,2.06,0.23,3.02l-0.05,0.03l-0.28,0.15c-0.17,0.09-0.32,0.2-0.46,0.32
				c-0.27,0.24-0.48,0.53-0.62,0.84c-0.14,0.31-0.23,0.64-0.24,1.01l0,0.14c0,0.05,0.01,0.1,0.01,0.15l0.01,0.07l0.01,0.04
				l0.01,0.07l0.04,0.3l0.09,0.6c0.06,0.4,0.13,0.81,0.21,1.21c0.16,0.81,0.34,1.62,0.61,2.45c0.05,0.14,0.1,0.28,0.15,0.42
				c-0.96,4.95-2.97,8-4.49,10.31c-1.02,1.55-1.9,2.88-2.15,4.35c-0.32,1.86,0.39,3.51,2.18,5.04c2.92,2.5,7.72,4.42,13.26,5.31
				c0.02,0.45,0.03,0.89,0.04,1.34c0.02,0.9,0,1.79-0.05,2.68c-0.1,1.77-0.33,3.52-0.71,5.2c-0.38,1.68-0.94,3.3-1.65,4.84
				c-0.36,0.77-0.76,1.52-1.2,2.27c-0.44,0.75-0.93,1.48-1.46,2.25c-0.26,0.39-0.54,0.79-0.82,1.22c-0.28,0.43-0.58,0.9-0.88,1.46
				c-0.07,0.14-0.15,0.29-0.22,0.44c-0.04,0.07-0.07,0.16-0.11,0.24c-0.04,0.08-0.07,0.16-0.11,0.26l-0.1,0.27
				c-0.03,0.1-0.06,0.2-0.09,0.3c-0.02,0.05-0.03,0.1-0.04,0.15l-0.04,0.16c-0.03,0.11-0.05,0.21-0.07,0.33
				c-0.02,0.12-0.04,0.23-0.06,0.35c-0.01,0.13-0.02,0.25-0.03,0.38l-0.01,0.09l0,0.1l0,0.2c0,0.07,0,0.13,0,0.2l0.02,0.2
				c0.02,0.27,0.07,0.53,0.12,0.8c0.03,0.13,0.07,0.26,0.11,0.38c0.02,0.06,0.04,0.13,0.06,0.18l0.07,0.18l0.07,0.18
				c0.02,0.06,0.05,0.11,0.08,0.17c0.05,0.11,0.11,0.22,0.16,0.32c0.11,0.2,0.23,0.4,0.35,0.57c0.06,0.09,0.12,0.18,0.18,0.26
				l0.18,0.23l0.09,0.12l0.09,0.1l0.19,0.21c0.03,0.04,0.06,0.07,0.09,0.1l0.09,0.09l0.18,0.18c0.12,0.11,0.24,0.22,0.36,0.33
				c0.23,0.19,0.46,0.38,0.69,0.57c0.93,0.72,1.89,1.3,2.87,1.81c1.95,1.01,3.94,1.7,5.95,2.22c1.01,0.25,2.01,0.47,3.03,0.64
				c1.01,0.17,2.03,0.29,3.05,0.38c1.02,0.09,2.05,0.12,3.08,0.12c0.26,0,0.51,0,0.77-0.01l0.77-0.03c0.26-0.02,0.52-0.03,0.78-0.05
				c0.26-0.02,0.52-0.05,0.78-0.08c1.04-0.11,2.09-0.29,3.15-0.56l0.4-0.1c0.13-0.04,0.27-0.08,0.4-0.12
				c0.13-0.04,0.27-0.08,0.4-0.13l0.4-0.15c0.26-0.1,0.52-0.21,0.78-0.33c0.12,0.05,0.24,0.09,0.36,0.14
				c0.44,0.16,0.88,0.31,1.33,0.45c0.89,0.28,1.79,0.51,2.71,0.7c1.83,0.38,3.73,0.58,5.66,0.51c0.97-0.04,1.94-0.14,2.91-0.33
				c0.24-0.05,0.48-0.1,0.73-0.16c0.24-0.06,0.48-0.12,0.72-0.19c0.48-0.14,0.95-0.3,1.42-0.49c0.47-0.19,0.93-0.4,1.37-0.64
				c0.23-0.11,0.44-0.24,0.66-0.37c0.22-0.13,0.43-0.26,0.64-0.41c0.59-0.39,1.15-0.84,1.68-1.31c0.01,0,0.02,0,0.03,0
				c0.31-0.01,0.62-0.04,0.92-0.06c0.61-0.06,1.21-0.13,1.8-0.23c0.6-0.1,1.19-0.21,1.78-0.35c0.59-0.14,1.17-0.29,1.75-0.46
				c0.15-0.04,0.29-0.09,0.43-0.14c0.14-0.05,0.29-0.09,0.43-0.14c0.29-0.1,0.57-0.2,0.85-0.31c0.57-0.21,1.13-0.46,1.68-0.71
				c1.1-0.52,2.17-1.13,3.18-1.82c2.02-1.39,3.8-3.15,5.2-5.16c0.7-1,1.3-2.07,1.82-3.17c0.51-1.1,0.94-2.23,1.27-3.38
				c0.09-0.29,0.16-0.57,0.24-0.86l0.11-0.43c0.04-0.14,0.06-0.29,0.1-0.43c0.06-0.29,0.13-0.58,0.18-0.87l0.15-0.87l0.04-0.22
				l0.03-0.22l0.06-0.44c0.04-0.29,0.08-0.58,0.1-0.87l0.08-0.87c0.02-0.29,0.04-0.58,0.05-0.87c0.13-2.33,0.03-4.65-0.21-6.93
				c-0.21-2-0.53-3.97-0.93-5.92c0.09-0.07,0.17-0.14,0.26-0.22c0.96-0.81,1.87-1.69,2.72-2.62c0.84-0.93,1.63-1.92,2.35-2.94
				c1.45-2.05,2.65-4.25,3.63-6.53c0.49-1.14,0.93-2.3,1.32-3.48c0.39-1.17,0.73-2.36,1.03-3.56c0.07-0.3,0.15-0.6,0.22-0.9l0.2-0.9
				c0.12-0.6,0.25-1.2,0.35-1.81c0.22-1.21,0.4-2.42,0.55-3.64c0.15-1.22,0.27-2.43,0.34-3.65l0.11-1.83l0.05-1.84
				c0.04-2.45-0.04-4.93-0.36-7.41c-0.31-2.48-0.86-4.97-1.77-7.39c-0.48-1.21-1.04-2.4-1.72-3.54c-0.24-0.39-0.5-0.77-0.77-1.15
				c-0.23-0.5-0.49-0.99-0.75-1.48c-0.21-0.39-0.44-0.77-0.67-1.15c0.23-0.97,0.41-1.96,0.53-2.95l0.07-0.64l0.03-0.32l0.02-0.32
				l0.04-0.64c0.01-0.21,0.02-0.43,0.02-0.64c0.02-0.43,0.01-0.86,0.01-1.29c0-0.21-0.01-0.43-0.02-0.64
				c-0.01-0.21-0.01-0.43-0.03-0.64c-0.11-1.71-0.37-3.41-0.78-5.07c-0.2-0.83-0.45-1.65-0.71-2.46c-0.14-0.4-0.28-0.81-0.43-1.2
				c-0.08-0.2-0.15-0.4-0.23-0.59l-0.25-0.59c-0.08-0.2-0.17-0.39-0.26-0.58c-0.09-0.19-0.17-0.39-0.27-0.58
				c-0.19-0.38-0.37-0.76-0.57-1.13c-0.1-0.19-0.2-0.37-0.3-0.56l-0.31-0.55l-0.16-0.27l-0.16-0.27l-0.33-0.54l-0.34-0.53
				l-0.17-0.27l-0.18-0.26l-0.36-0.52l-0.37-0.51l-0.19-0.26c-0.06-0.08-0.13-0.17-0.19-0.25l-0.39-0.5
				c-0.13-0.16-0.27-0.33-0.4-0.49c-0.13-0.16-0.27-0.33-0.41-0.48c-1.1-1.28-2.28-2.48-3.54-3.59c-0.63-0.56-1.28-1.08-1.95-1.6
				l-0.51-0.38l-0.25-0.19l-0.26-0.18l-0.52-0.36l-0.53-0.35c-1.4-0.93-2.88-1.74-4.4-2.46c-0.19-0.09-0.38-0.17-0.57-0.26
				c-0.19-0.08-0.38-0.17-0.58-0.25c-0.39-0.16-0.78-0.32-1.17-0.47c-0.79-0.3-1.59-0.56-2.39-0.8l-0.61-0.17l-0.3-0.08l-0.31-0.08
				l-0.61-0.15l-0.62-0.13l-0.31-0.07c-0.1-0.02-0.21-0.04-0.31-0.06l-0.62-0.11c-0.21-0.03-0.42-0.06-0.63-0.09
				c-0.21-0.03-0.42-0.06-0.63-0.08C205.76,158.28,204.06,158.21,202.37,158.3z M164.35,207.74l-0.07,0.61
				c-0.16,1.59-0.31,3.15-0.54,4.69c-0.23,1.53-0.53,3.04-0.99,4.46c-0.38,1.18-0.87,2.31-1.51,3.32
				C160.7,215.34,161.75,210.94,164.35,207.74z M155.05,248.78c-0.81-0.7-0.77-0.95-0.75-1.06c0.1-0.58,0.78-1.62,1.51-2.72
				c1.45-2.2,3.45-5.24,4.67-9.88c0,0,0,0,0,0c0.07-0.29,0.15-0.58,0.22-0.88c0.18-0.06,0.35-0.13,0.53-0.19c0,0,0,0,0,0
				c0.28-0.1,0.56-0.21,0.83-0.33c0.5-0.2,0.98-0.43,1.47-0.66c0.48-0.25,0.96-0.49,1.42-0.77c0.23-0.14,0.47-0.27,0.69-0.42
				c0.23-0.15,0.45-0.29,0.68-0.44l0.66-0.47l0.16-0.12l0.16-0.12c0.16,1.3,0.36,2.6,0.59,3.88c0.05,0.3,0.11,0.6,0.17,0.89
				c0.06,0.3,0.12,0.59,0.18,0.89l0.05,0.22l0.05,0.23l0.1,0.46c0.04,0.15,0.08,0.3,0.12,0.45c0.04,0.15,0.08,0.3,0.12,0.45
				c0.16,0.57,0.35,1.14,0.55,1.71c-0.22,0.29-0.43,0.58-0.64,0.88c-0.61,0.9-1.12,1.86-1.55,2.85c-0.43,0.99-0.77,2.01-1.03,3.04
				c-0.26,1.03-0.43,2.08-0.55,3.12c-0.06,0.52-0.09,1.04-0.13,1.56l-0.03,0.78c-0.01,0.13-0.01,0.26-0.01,0.39l0,0.39l0,0.01
				C160.96,252.14,157.2,250.62,155.05,248.78z M231.08,198.85c-0.21-1.53-0.56-3.03-1.04-4.48c-0.04-0.12-0.08-0.24-0.12-0.36
				c0.03,0.01,0.05,0.01,0.08,0.02c0.17,0.05,0.35,0.1,0.52,0.16c0.6,0.2,1.17,0.44,1.72,0.72c0.02-0.1,0.04-0.2,0.06-0.3
				c0.13,0.17,0.25,0.35,0.37,0.52c0.31,0.46,0.6,0.94,0.87,1.43c0.45,0.81,0.82,1.66,1.14,2.52c0.11,0.3,0.21,0.59,0.3,0.89
				c0.45,1.45,0.75,2.94,0.89,4.43c0,0.04,0.01,0.08,0.01,0.12c0.16,1.75,0.13,3.5-0.1,5.2l-0.01,0.18
				c-0.03,0.44-0.15,0.84-0.35,1.21c-0.1,0.18-0.22,0.35-0.36,0.51c-0.13,0.16-0.29,0.3-0.45,0.42c-0.17,0.12-0.34,0.23-0.53,0.31
				c-0.19,0.08-0.38,0.15-0.58,0.19c-0.2,0.04-0.41,0.06-0.61,0.06c-0.21,0-0.41-0.02-0.61-0.07c-0.4-0.09-0.79-0.27-1.13-0.52
				c-0.04-0.03-0.08-0.07-0.13-0.1c-0.04-0.03-0.08-0.07-0.12-0.11c-0.08-0.08-0.15-0.15-0.22-0.24c-0.07-0.08-0.14-0.17-0.2-0.26
				c-0.06-0.09-0.12-0.18-0.17-0.28c-0.1-0.19-0.19-0.4-0.25-0.61l-0.02-0.08l-0.02-0.08c-0.01-0.05-0.02-0.11-0.03-0.17
				c-0.01-0.06-0.01-0.11-0.02-0.17l-0.01-0.2l0-0.1l0-0.14c0-0.06,0-0.12,0-0.17c0-0.12,0.01-0.23,0.02-0.35
				c0.01-0.12,0.04-0.23,0.06-0.35c0.01-0.06,0.03-0.12,0.05-0.18c0.01-0.03,0.02-0.06,0.03-0.09c0.01-0.02,0.01-0.03,0.02-0.05
				l0.03-0.07c0.27-0.71,0.53-1.44,0.76-2.17l0.04-0.14l0.03-0.08c0.01-0.03,0.02-0.07,0.03-0.1c0.01-0.03,0.02-0.07,0.03-0.11
				l0.01-0.05l0-0.02l0.04-0.29c0.03-0.2,0.05-0.39,0.07-0.59c0.02-0.2,0.04-0.39,0.06-0.59l0.04-0.59
				c0.08-1.49,0.02-2.98-0.17-4.45C231.09,198.99,231.08,198.92,231.08,198.85z M211.36,162.94c0.71,0.23,1.42,0.46,2.12,0.75
				c0.35,0.13,0.69,0.28,1.04,0.43c0.17,0.07,0.34,0.16,0.51,0.23c0.17,0.08,0.34,0.15,0.51,0.24c1.35,0.66,2.66,1.4,3.9,2.25
				l0.47,0.32l0.46,0.33l0.23,0.17l0.22,0.17l0.45,0.34c0.59,0.47,1.17,0.95,1.72,1.46c1.12,1.01,2.15,2.1,3.11,3.25
				c0.12,0.14,0.24,0.29,0.35,0.44c0.12,0.15,0.23,0.29,0.35,0.44l0.34,0.45c0.06,0.07,0.11,0.15,0.17,0.22l0.16,0.23l0.32,0.46
				l0.31,0.47l0.16,0.23l0.15,0.24l0.3,0.47l0.28,0.48l0.14,0.24l0.14,0.24l0.27,0.49l0.26,0.5c0.17,0.33,0.33,0.67,0.49,1
				c0.08,0.17,0.15,0.34,0.23,0.51c0.07,0.17,0.15,0.34,0.22,0.51l0.21,0.52c0.07,0.17,0.13,0.35,0.19,0.52
				c0.13,0.35,0.24,0.7,0.36,1.05c0.22,0.71,0.43,1.42,0.59,2.13c0.34,1.44,0.53,2.9,0.61,4.36c0.01,0.18,0.01,0.37,0.02,0.55
				c0,0.18,0.01,0.37,0.01,0.55c-0.01,0.37,0,0.73-0.03,1.1c-0.01,0.18-0.02,0.37-0.03,0.55l-0.05,0.55l-0.01,0.11
				c-0.49-0.49-1-0.95-1.53-1.39c-0.2-0.16-0.39-0.32-0.59-0.47c-0.2-0.15-0.4-0.31-0.61-0.45l-0.31-0.21l-0.16-0.11l-0.02-0.01
				l-0.04-0.02c-0.03-0.02-0.05-0.03-0.08-0.05c-0.05-0.03-0.11-0.06-0.17-0.08c-0.23-0.09-0.49-0.11-0.74-0.06
				c-0.25,0.05-0.48,0.16-0.66,0.33c-0.14,0.13-0.26,0.29-0.33,0.46c-0.08,0.17-0.12,0.36-0.12,0.55c0,0.19,0.04,0.38,0.12,0.55
				l0.11,0.25c0.14,0.33,0.28,0.66,0.41,0.99c0.11,0.29,0.21,0.57,0.31,0.86c0.13,0.39,0.25,0.78,0.35,1.17l0.13,0.52
				c0.04,0.17,0.07,0.35,0.11,0.52c0.04,0.17,0.07,0.35,0.09,0.52c0.03,0.17,0.06,0.35,0.08,0.52c0.02,0.18,0.05,0.35,0.06,0.53
				l0.05,0.53c0,0.08,0.01,0.16,0.01,0.25c0.01,0.27,0.02,0.54,0.03,0.81c0.01,0.7-0.02,1.4-0.1,2.1c-0.08,0.69-0.19,1.38-0.34,2.06
				l-0.12,0.51c-0.04,0.17-0.09,0.33-0.13,0.5c-0.04,0.17-0.1,0.33-0.14,0.5l-0.07,0.25l0,0.02l0-0.02c0-0.01,0-0.03,0.01-0.04
				c0-0.01,0.01-0.03,0.01-0.04l0.01-0.02c0-0.01,0-0.01,0,0l0,0.01l-0.06,0.12c-0.32,0.64-0.66,1.25-1.01,1.87l-0.03,0.06
				l-0.04,0.08c-0.03,0.05-0.06,0.11-0.08,0.16c-0.05,0.11-0.11,0.22-0.15,0.34c-0.1,0.23-0.18,0.46-0.25,0.7
				c-0.07,0.24-0.13,0.49-0.17,0.74c-0.02,0.12-0.04,0.25-0.05,0.38l-0.02,0.14l-0.02,0.17l-0.03,0.35c0,0.13-0.01,0.25-0.01,0.38
				c0,0.13,0,0.25,0.02,0.38l0.01,0.19l0.02,0.19c0.03,0.25,0.08,0.51,0.14,0.76c0.07,0.25,0.14,0.5,0.23,0.74
				c0.37,0.97,0.97,1.85,1.75,2.56c0.78,0.7,1.72,1.24,2.75,1.51c0.51,0.14,1.04,0.22,1.57,0.24c0.53,0.02,1.06-0.02,1.58-0.13
				c0.52-0.11,1.03-0.27,1.51-0.5c0.24-0.11,0.48-0.24,0.7-0.38c0.22-0.14,0.44-0.29,0.65-0.46c0.42-0.33,0.79-0.7,1.12-1.12
				c0.15,1.56,0.21,3.15,0.22,4.73l-0.01,1.74l-0.08,1.74c-0.05,1.16-0.14,2.32-0.26,3.48c-0.11,1.16-0.27,2.31-0.45,3.45
				c-0.09,0.57-0.2,1.14-0.3,1.71l-0.17,0.85c-0.06,0.28-0.13,0.56-0.19,0.84c-0.26,1.12-0.56,2.24-0.9,3.33
				c-0.34,1.1-0.73,2.18-1.16,3.23c-0.87,2.11-1.93,4.14-3.21,6.01c-0.64,0.93-1.33,1.83-2.08,2.68c-0.47,0.53-0.95,1.04-1.46,1.53
				c-0.34-1.37-0.72-2.72-1.12-4.07c-0.2-0.67-0.9-1.07-1.58-0.89c-0.7,0.18-1.11,0.9-0.92,1.59l0,0.01
				c0.47,1.78,0.9,3.57,1.26,5.37c0.07,0.35,0.14,0.7,0.2,1.05c0.13,0.72,0.25,1.45,0.36,2.18c0.22,1.43,0.38,2.86,0.49,4.3
				c0.15,2.16,0.18,4.32-0.01,6.44c-0.02,0.26-0.05,0.53-0.07,0.79l-0.1,0.79c-0.03,0.26-0.08,0.52-0.12,0.78l-0.06,0.39l-0.03,0.2
				l-0.04,0.19l-0.16,0.77c-0.06,0.26-0.12,0.51-0.19,0.76c-0.03,0.13-0.06,0.25-0.1,0.38l-0.11,0.37c-0.07,0.25-0.14,0.5-0.23,0.74
				c-0.32,0.99-0.71,1.94-1.17,2.85c-0.46,0.91-0.99,1.77-1.59,2.58c-1.2,1.62-2.68,3-4.38,4.08c-0.85,0.54-1.74,1.01-2.67,1.42
				c-0.47,0.2-0.94,0.39-1.42,0.55c-0.24,0.09-0.48,0.16-0.73,0.24l-0.37,0.11c-0.12,0.04-0.24,0.07-0.37,0.1
				c-0.99,0.26-2,0.46-3.01,0.59c-0.51,0.07-1.02,0.11-1.52,0.14c-0.25,0.01-0.5,0.03-0.75,0.03c-0.12,0-0.25,0-0.37,0l-0.18,0
				l-0.08,0l-0.04,0l-0.02,0c0,0,0,0,0,0c-0.52-0.04-1.07,0.12-1.48,0.51l-0.14,0.13l0,0c-1.01,1.03-2.2,1.83-3.54,2.37
				c-1.34,0.54-2.81,0.81-4.33,0.87c-1.52,0.05-3.09-0.11-4.64-0.43c-0.77-0.16-1.55-0.36-2.31-0.59c-0.38-0.12-0.76-0.24-1.13-0.38
				c-0.18-0.07-0.37-0.14-0.55-0.21l-0.26-0.11l-0.13-0.05l-0.1-0.04c-0.54-0.24-1.18-0.26-1.77-0.02l-0.07,0.03l0,0
				c-0.65,0.19-1.43,0.33-2.24,0.41c-0.82,0.08-1.67,0.11-2.53,0.1c-0.86-0.01-1.74-0.05-2.61-0.14c-0.88-0.08-1.75-0.18-2.63-0.32
				c-0.87-0.14-1.74-0.3-2.6-0.49c-0.86-0.19-1.71-0.41-2.55-0.65c-0.83-0.25-1.65-0.52-2.45-0.82c-0.8-0.3-1.56-0.64-2.28-1.01
				c-0.72-0.37-1.39-0.78-1.98-1.22l-0.42-0.33l-0.17-0.14c-0.04-0.04-0.1-0.09-0.14-0.13c-0.02-0.02-0.04-0.04-0.06-0.06
				l-0.03-0.03l-0.02-0.02c-0.01-0.01-0.02-0.02-0.02-0.03c0.03-0.09,0.08-0.2,0.15-0.33c0.14-0.28,0.34-0.63,0.57-1
				c0.23-0.37,0.48-0.77,0.74-1.17c0.52-0.82,1.06-1.69,1.57-2.6c0.5-0.91,0.97-1.86,1.39-2.83c0.42-0.97,0.78-1.97,1.08-2.98
				c0.3-1.01,0.55-2.03,0.74-3.06c0.19-1.03,0.34-2.06,0.43-3.08c0.09-1.03,0.14-2.05,0.15-3.07c0.01-1.24-0.03-2.47-0.12-3.68
				c-0.06-0.79-0.14-1.57-0.23-2.35l-0.16-1.37c-0.02-0.2-0.04-0.39-0.05-0.59c0-0.02,0-0.05-0.01-0.07
				c-0.01-0.11-0.02-0.22-0.03-0.33l-0.02-0.33l-0.02-0.33c-0.01-0.11-0.01-0.22-0.01-0.33l-0.02-0.65c0-0.43,0-0.86,0.03-1.29
				c0.09-1.71,0.38-3.39,0.93-4.95c0.11-0.31,0.23-0.62,0.37-0.93c0.2-0.45,0.42-0.9,0.66-1.33c0.2-0.34,0.41-0.68,0.64-1.01
				c0.25-0.35,0.51-0.69,0.79-1.02c0.13-0.16,0.28-0.31,0.42-0.47c0.14-0.16,0.29-0.3,0.44-0.45c0.3-0.29,0.61-0.58,0.94-0.85
				c0.66-0.54,1.36-1.04,2.11-1.48c1.49-0.89,3.15-1.58,4.87-2.1c0.86-0.26,1.74-0.47,2.64-0.64c0.45-0.08,0.89-0.16,1.34-0.22
				c0.22-0.03,0.45-0.06,0.67-0.08c0.11-0.01,0.22-0.02,0.33-0.03l0.31-0.03l0.08-0.01c0.59-0.05,1.06-0.53,1.09-1.13
				c0.03-0.66-0.48-1.21-1.13-1.24l-0.21-0.01l-0.19-0.01c-0.13,0-0.26-0.01-0.38-0.01c-0.25,0-0.5,0-0.76,0.01
				c-0.5,0.02-1,0.04-1.5,0.09c-1,0.09-1.99,0.22-2.98,0.42c-0.5,0.1-0.99,0.21-1.48,0.34c-0.49,0.13-0.98,0.27-1.47,0.43
				c-0.97,0.32-1.93,0.7-2.86,1.15c-0.47,0.22-0.93,0.47-1.38,0.74l-0.34,0.2l-0.17,0.1l-0.17,0.11l-0.33,0.22
				c-0.11,0.07-0.22,0.15-0.33,0.23c-0.43,0.3-0.85,0.63-1.26,0.97c-0.2,0.18-0.41,0.35-0.6,0.53c-0.08,0.07-0.15,0.14-0.23,0.22
				c-0.04-0.12-0.08-0.24-0.11-0.37c-0.04-0.13-0.08-0.27-0.11-0.41c-0.04-0.14-0.07-0.27-0.11-0.41l-0.1-0.41l-0.05-0.21
				l-0.05-0.21c-0.06-0.29-0.12-0.57-0.18-0.86c-0.06-0.29-0.11-0.58-0.17-0.86c-0.33-1.74-0.59-3.49-0.78-5.25l0.1-0.1
				c0.05-0.05,0.1-0.09,0.15-0.14l0.14-0.15l0.28-0.3l0.28-0.3c0.09-0.1,0.18-0.21,0.26-0.31l0.26-0.31
				c0.09-0.11,0.18-0.21,0.26-0.32l0.49-0.65c0.08-0.11,0.16-0.22,0.24-0.33l0.23-0.34l0.23-0.34c0.07-0.12,0.14-0.23,0.21-0.35
				l0.21-0.35l0.11-0.18l0.05-0.09l0.05-0.09l0.37-0.71l0.18-0.36l0.09-0.18c0.03-0.06,0.06-0.12,0.09-0.18
				c0.93-1.91,1.68-3.89,2.32-5.88c0.64-2,1.17-4.01,1.66-6.01c0.49-2,0.95-4,1.45-5.96c0.12-0.49,0.26-0.98,0.38-1.47
				c0.13-0.49,0.28-0.99,0.41-1.49c0.07-0.25,0.13-0.49,0.19-0.74c0.01-0.04,0.02-0.08,0.03-0.12c0.05-0.21,0.11-0.42,0.16-0.61
				l0.2-0.71c0.07-0.24,0.15-0.47,0.22-0.71l0.11-0.35l0.06-0.18l0.02-0.06l0.04-0.12l0.25-0.7c0.08-0.23,0.18-0.46,0.26-0.69
				l0.14-0.34c0.05-0.11,0.09-0.23,0.14-0.34c0.15-0.33,0.29-0.67,0.44-0.99c0.51-0.3,1.04-0.58,1.57-0.85l0.78-0.38
				c0.26-0.12,0.53-0.23,0.79-0.35l0.4-0.17c0.13-0.06,0.27-0.11,0.4-0.16l0.81-0.31c2.17-0.79,4.44-1.35,6.74-1.73
				c2.03-0.34,4.09-0.54,6.16-0.63c-0.09,0.15-0.14,0.3-0.14,0.46c0,1.26,3.12,2.29,6.97,2.3c-0.48,0.56-1.01,1.11-1.55,1.63
				c-0.72,0.7-1.48,1.36-2.26,2.04l-0.06,0.06c-0.07,0.06-0.11,0.15-0.1,0.25c0.01,0.17,0.16,0.3,0.33,0.29l0.02,0
				c0.05,0,0.11-0.02,0.15-0.06l0,0.02c0.97-0.4,1.9-0.88,2.81-1.44c0.9-0.56,1.77-1.19,2.58-1.94c0.2-0.19,0.4-0.37,0.59-0.58
				l0.29-0.3c0.05-0.05,0.09-0.11,0.14-0.16c0.04-0.05,0.09-0.1,0.13-0.16c0.37-0.43,0.69-0.9,0.99-1.4c0.11-0.19,0.22-0.4,0.32-0.6
				c0.16-0.33,0.3-0.67,0.42-1.02c0.06-0.18,0.11-0.37,0.16-0.56c0.03-0.12,0.05-0.23,0.08-0.35c0.06-0.3,0.1-0.61,0.11-0.92
				c0.04-0.64-0.02-1.29-0.18-1.92c-0.16-0.63-0.41-1.23-0.74-1.78c-0.08-0.14-0.16-0.28-0.25-0.4l-0.14-0.19
				c-0.05-0.06-0.09-0.13-0.14-0.19c-0.1-0.12-0.2-0.24-0.3-0.36l-0.32-0.34c-0.43-0.44-0.9-0.83-1.39-1.17l-0.37-0.25
				c-0.12-0.08-0.25-0.15-0.38-0.23c-0.06-0.04-0.13-0.07-0.19-0.11l-0.19-0.1c-0.13-0.07-0.26-0.14-0.39-0.2
				c-0.53-0.25-1.06-0.46-1.61-0.64l-0.41-0.12l-0.21-0.06l-0.21-0.05l-0.41-0.1l-0.42-0.09l-0.21-0.04l-0.21-0.04l-0.42-0.07
				l-0.42-0.05c-0.14-0.02-0.28-0.04-0.42-0.05c-1.12-0.11-2.24-0.11-3.34-0.02c-1.11,0.09-2.2,0.27-3.27,0.54
				c-2.14,0.53-4.19,1.4-6.07,2.54c-0.23,0.14-0.46,0.29-0.69,0.44c-0.23,0.15-0.45,0.31-0.68,0.46c-0.45,0.32-0.89,0.65-1.31,1.02
				c-0.85,0.7-1.62,1.48-2.36,2.28l-0.53,0.62c-0.09,0.1-0.18,0.21-0.26,0.31l-0.25,0.32l-0.5,0.64l-0.47,0.67l-0.23,0.33
				l-0.22,0.34l-0.43,0.69c-0.14,0.23-0.27,0.47-0.41,0.7l-0.2,0.35c-0.07,0.12-0.13,0.24-0.19,0.36l-0.37,0.72
				c-0.12,0.24-0.23,0.48-0.35,0.73c-0.15,0.31-0.29,0.64-0.43,0.96c-0.07,0.17-0.14,0.34-0.22,0.51c-0.05,0.12-0.1,0.25-0.15,0.37
				l-0.14,0.37c-0.09,0.25-0.2,0.5-0.28,0.75l-0.17,0.48l-0.09,0.27l-0.06,0.19l-0.06,0.19l-0.12,0.38
				c-0.02,0.05-0.03,0.11-0.05,0.16c-0.06,0.2-0.13,0.4-0.18,0.6l-0.21,0.77c-0.07,0.26-0.13,0.51-0.19,0.76
				c-0.06,0.25-0.12,0.5-0.18,0.75c-0.03,0.11-0.06,0.21-0.09,0.32c-0.1,0.38-0.21,0.77-0.31,1.16c-0.12,0.5-0.25,1.01-0.37,1.51
				c-0.48,2.01-0.92,4.02-1.38,6c-0.46,1.98-0.94,3.95-1.52,5.87c-0.58,1.92-1.26,3.79-2.09,5.58c-0.03,0.06-0.05,0.11-0.08,0.17
				l-0.08,0.16l-0.16,0.33l-0.33,0.66l-0.04,0.08l-0.04,0.08l-0.09,0.15l-0.18,0.31c-0.06,0.1-0.12,0.21-0.18,0.31l-0.2,0.3
				l-0.2,0.3c-0.06,0.1-0.13,0.2-0.2,0.3l-0.42,0.58c-0.03,0.05-0.07,0.09-0.1,0.13c-0.04,0.05-0.08,0.1-0.12,0.15l-0.23,0.28
				c-0.08,0.09-0.15,0.19-0.23,0.28l-0.24,0.27l-0.24,0.27l-0.12,0.13c-0.04,0.04-0.08,0.09-0.13,0.13l-0.51,0.51
				c-0.08,0.08-0.16,0.15-0.24,0.23c-0.1,0.09-0.19,0.18-0.29,0.27c-0.09,0.08-0.18,0.17-0.27,0.24l-0.28,0.23l-0.28,0.23
				l-0.14,0.12l-0.15,0.11l-0.58,0.44c-0.2,0.14-0.4,0.27-0.6,0.41c-0.2,0.14-0.41,0.26-0.62,0.39c-0.41,0.26-0.84,0.49-1.27,0.73
				c-0.44,0.21-0.87,0.44-1.32,0.63c-0.02,0.01-0.04,0.02-0.05,0.02c-0.14,0.06-0.28,0.12-0.42,0.18c0,0,0,0,0,0
				c-0.29,0.12-0.59,0.23-0.88,0.35l-0.67,0.23l-0.03,0.01l-0.02,0.01c-0.06-0.1-0.13-0.21-0.19-0.34
				c-0.13-0.25-0.24-0.55-0.34-0.86c0,0,0,0,0,0c-0.01-0.03-0.02-0.06-0.03-0.09c0-0.01,0-0.02-0.01-0.02
				c-0.21-0.68-0.37-1.42-0.5-2.16c-0.07-0.38-0.13-0.76-0.18-1.14l-0.08-0.58l-0.04-0.29l-0.01-0.07l0-0.04c0-0.01,0,0,0-0.01
				c0,0,0,0,0,0c0,0,0-0.01,0-0.01c0-0.03,0.02-0.09,0.04-0.14c0.02-0.05,0.06-0.09,0.09-0.12c0.01-0.01,0.02-0.02,0.03-0.02
				c0,0,0,0,0,0c0,0,0.02-0.01,0.03-0.01l0.07-0.04l0.14-0.07l0.29-0.15l0.14-0.07l0.14-0.08c0.76-0.42,1.48-0.92,2.14-1.5
				c0.21-0.19,0.42-0.38,0.62-0.59c0.42-0.42,0.8-0.87,1.15-1.34c1.05-1.4,1.79-2.97,2.32-4.56c0.54-1.6,0.88-3.22,1.15-4.83
				c0.26-1.61,0.44-3.21,0.63-4.79l0.44-3.51l0.15-1.22c0.18-1.38,0.36-2.76,0.57-4.13c0.03-0.19,0.06-0.38,0.08-0.56
				c0.24-1.56,0.51-3.1,0.83-4.63c0.08-0.38,0.16-0.76,0.25-1.15c0.08-0.38,0.17-0.75,0.26-1.13c0.04-0.19,0.1-0.37,0.15-0.55
				l0.16-0.55l0.16-0.55c0.06-0.18,0.12-0.37,0.18-0.55c0.12-0.37,0.24-0.73,0.36-1.1l0.4-1.09c0.13-0.36,0.28-0.72,0.43-1.08
				l0.22-0.54c0.04-0.09,0.07-0.18,0.11-0.27l0.12-0.26l0.47-1.06c0.16-0.35,0.34-0.69,0.51-1.04l0.26-0.52l0.27-0.51l0.27-0.51
				c0.09-0.17,0.18-0.34,0.28-0.51l0.58-1l0.15-0.25l0.15-0.24l0.31-0.49c0.4-0.66,0.85-1.29,1.28-1.92l0.68-0.93
				c0.12-0.15,0.22-0.31,0.34-0.46l0.36-0.45l0.36-0.45l0.18-0.23c0.06-0.08,0.12-0.15,0.19-0.22l0.75-0.88
				c0.12-0.15,0.25-0.29,0.38-0.43l0.39-0.42l0.39-0.42c0.13-0.14,0.27-0.27,0.4-0.41c0.27-0.27,0.54-0.55,0.81-0.82l0.84-0.79
				c1.13-1.04,2.32-2.02,3.55-2.92c2.46-1.81,5.14-3.28,7.96-4.34c1.41-0.53,2.86-0.94,4.34-1.24l0.28-0.06
				c0.09-0.02,0.18-0.04,0.28-0.05l0.56-0.09l0.56-0.09c0.19-0.03,0.37-0.05,0.56-0.07l0.56-0.07l0.28-0.03l0.28-0.02l0.55-0.04
				l0.56-0.02C205.5,161.64,208.49,162.07,211.36,162.94z M208.66,189.02l-0.9-0.06c-2.41-0.16-4.83-0.23-7.25-0.16
				c-2.42,0.07-4.85,0.28-7.25,0.68c-0.6,0.11-1.2,0.2-1.8,0.34l-0.9,0.19l-0.89,0.22c-0.6,0.14-1.18,0.32-1.77,0.49
				c-0.3,0.08-0.58,0.19-0.88,0.28c-0.29,0.1-0.58,0.19-0.87,0.3l-0.86,0.33c-0.14,0.06-0.29,0.11-0.43,0.17l-0.42,0.18
				c-0.19,0.08-0.39,0.17-0.58,0.25l0.2-0.31l0.2-0.3l0.21-0.29l0.42-0.59l0.45-0.57l0.22-0.28c0.08-0.09,0.16-0.18,0.24-0.27
				l0.47-0.54c0.16-0.18,0.33-0.35,0.5-0.52l0.25-0.26c0.08-0.09,0.17-0.16,0.26-0.25l0.53-0.49c0.09-0.08,0.18-0.16,0.27-0.23
				l0.27-0.23c0.36-0.31,0.74-0.59,1.12-0.86c0.2-0.13,0.39-0.27,0.59-0.4c0.2-0.13,0.4-0.26,0.61-0.38
				c1.63-0.98,3.41-1.72,5.24-2.16c0.92-0.22,1.85-0.37,2.79-0.44c0.94-0.07,1.87-0.06,2.8,0.03c0.92,0.09,1.83,0.28,2.69,0.54
				c0.21,0.07,0.43,0.14,0.64,0.22c0.1,0.04,0.21,0.08,0.31,0.12l0.3,0.13c0.4,0.19,0.79,0.39,1.15,0.62
				c0.36,0.23,0.69,0.49,0.99,0.77c0.3,0.28,0.56,0.58,0.77,0.91c0.43,0.64,0.68,1.36,0.69,2.14c0,0.24-0.01,0.48-0.04,0.72
				C208.88,189.03,208.77,189.03,208.66,189.02z"/>
		</g>
	</g>
</g>
</svg>
